<?xml version="1.0" encoding="UTF-8" standalone="no"?>
<!-- (https://github.com/arashyeganeh/) -->
<svg xmlns="http://www.w3.org/2000/svg" xmlns:svg="http://www.w3.org/2000/svg" height="200px" viewBox="0 0 38.743122 17.913477" version="1.1" id="svg5" xml:space="preserve"><defs id="defs2"/><g id="layer1" transform="translate(-0.61705728,-0.50631563)"><path id="rect4109" style="fill:#282c34;fill-opacity:1;stroke-width:0.239233" d="M 0.61705729,1.8424479 V 17.626042 a 0.79375,0.79375 45 0 0 0.79375001,0.79375 H 38.566431 a 0.79375,0.79375 135 0 0 0.79375,-0.79375 l 0,-16.312891 A 0.79375,0.79375 45 0 0 38.566431,0.51940104 H 1.4108073 A 0.67460886,0.67460886 146.30343 0 0 0.61705729,1.0486979 Z"/><g id="g30" transform="matrix(0.59524988,0,0,0.59524988,8.6698594,9.4695964)"><g stroke="#61dafb" stroke-width="1" fill="none" id="g17"><ellipse rx="11" ry="4.1999998" id="ellipse11" cx="0" cy="0"/><ellipse rx="11" ry="4.1999998" transform="rotate(60)" id="ellipse13" cx="0" cy="0"/><ellipse rx="11" ry="4.1999998" transform="rotate(120)" id="ellipse15" cx="0" cy="0"/></g><circle cx="0" cy="0" r="2.05" fill="#61dafb" id="circle9"/></g><g id="g595" transform="translate(2.4557078,3.6854181)"><g aria-label="React Tutorial" id="text585" style="font-weight:bold;font-size:3.17467px;font-family:Arial;-inkscape-font-specification:'Arial Bold';stroke-width:0.595249"><path d="M 16.494556,4.4585683 H 16.124074 V 5.2847886 H 15.659035 V 3.0277967 h 0.838621 q 0.399934,0 0.616953,0.1782651 0.217018,0.1782652 0.217018,0.5037929 0,0.2309696 -0.100759,0.3859828 -0.09921,0.153463 -0.302275,0.2449208 l 0.488291,0.9223285 v 0.021702 h -0.499142 z m -0.370482,-0.376682 h 0.375132 q 0.175165,0 0.271273,-0.088357 0.09611,-0.089908 0.09611,-0.246471 0,-0.1596635 -0.09146,-0.2511213 -0.08991,-0.091458 -0.277474,-0.091458 h -0.373582 z" style="font-family:Roboto;-inkscape-font-specification:'Roboto Bold';fill:#f9f9f9" id="path674"/><path d="m 18.42757,5.3157912 q -0.368931,0 -0.601451,-0.2263192 -0.23097,-0.2263192 -0.23097,-0.6030013 V 4.443067 q 0,-0.2526715 0.09766,-0.4510883 0.09766,-0.199967 0.275923,-0.3069261 0.179815,-0.1085093 0.409235,-0.1085093 0.344129,0 0.540996,0.2170185 0.198417,0.2170184 0.198417,0.6154023 v 0.1829156 h -1.068041 q 0.0217,0.164314 0.130211,0.2635224 0.110059,0.099208 0.277474,0.099208 0.258872,0 0.404584,-0.1875659 l 0.220119,0.2464709 q -0.100759,0.1426122 -0.272823,0.223219 -0.172065,0.079057 -0.381333,0.079057 z m -0.05115,-1.376517 q -0.133312,0 -0.217019,0.089908 -0.08216,0.089908 -0.105409,0.2573219 h 0.623153 v -0.035653 q -0.0031,-0.1488127 -0.08061,-0.2294195 -0.07751,-0.082157 -0.220118,-0.082157 z" style="font-family:Roboto;-inkscape-font-specification:'Roboto Bold';fill:#f9f9f9" id="path676"/><path d="m 20.343533,5.2847886 q -0.031,-0.060455 -0.04495,-0.1503628 -0.162764,0.1813654 -0.423186,0.1813654 -0.246471,0 -0.409234,-0.1426121 -0.161214,-0.1426121 -0.161214,-0.3596306 0,-0.2666226 0.196867,-0.4092348 0.198416,-0.1426121 0.571998,-0.1441622 h 0.206168 v -0.096108 q 0,-0.1162599 -0.06046,-0.1860158 -0.0589,-0.069756 -0.187566,-0.069756 -0.11316,0 -0.178266,0.054255 -0.06356,0.054255 -0.06356,0.1488126 h -0.447988 q 0,-0.1457124 0.08991,-0.2697229 0.08991,-0.1240106 0.254221,-0.1937665 0.164314,-0.071306 0.368932,-0.071306 0.310026,0 0.491391,0.1565634 0.182916,0.1550131 0.182916,0.4371371 v 0.7270119 q 0.0015,0.2387203 0.06666,0.3611807 V 5.284789 Z M 19.973052,4.9732121 q 0.09921,0 0.182915,-0.043404 0.08371,-0.044954 0.124011,-0.1193601 V 4.5221237 h -0.167415 q -0.336378,0 -0.35808,0.2325198 l -0.0016,0.026352 q 0,0.083707 0.05891,0.1379617 0.0589,0.054255 0.161214,0.054255 z" style="font-family:Roboto;-inkscape-font-specification:'Roboto Bold';fill:#f9f9f9" id="path678"/><path d="m 21.771204,4.9546105 q 0.124011,0 0.201517,-0.068206 0.07751,-0.068206 0.08061,-0.1813654 h 0.420086 q -0.0015,0.1705145 -0.09301,0.3131266 -0.09146,0.141062 -0.251121,0.2201188 -0.158114,0.077506 -0.35033,0.077506 -0.359631,0 -0.567348,-0.2278693 Q 21.00389,4.8585017 21.00389,4.4554674 v -0.029452 q 0,-0.387533 0.206168,-0.6185026 0.206167,-0.2309697 0.565798,-0.2309697 0.314676,0 0.503793,0.1798153 0.190666,0.1782652 0.193766,0.4758905 h -0.420086 q -0.0031,-0.1302111 -0.08061,-0.2108179 -0.07751,-0.082157 -0.204617,-0.082157 -0.156563,0 -0.23717,0.1147097 -0.07906,0.1131597 -0.07906,0.3689314 v 0.046504 q 0,0.258872 0.07906,0.3720316 0.07906,0.1131596 0.24027,0.1131596 z" style="font-family:Roboto;-inkscape-font-specification:'Roboto Bold';fill:#f9f9f9" id="path680"/><path d="M 23.265532,3.1952109 V 3.607546 h 0.286774 v 0.3286279 h -0.286774 v 0.8370712 q 0,0.093008 0.03565,0.1333113 0.03565,0.040303 0.136411,0.040303 0.07441,0 0.131761,-0.010851 v 0.3394789 q -0.131761,0.040303 -0.271273,0.040303 -0.47124,0 -0.480541,-0.4758904 V 3.9361739 H 22.57262 V 3.607546 h 0.24492 V 3.1952109 Z" style="font-family:Roboto;-inkscape-font-specification:'Roboto Bold';fill:#f9f9f9" id="path682"/><path d="M 26.227833,3.4044787 H 25.536474 V 5.2847886 H 25.071435 V 3.4044787 h -0.682058 v -0.376682 h 1.838456 z" style="font-family:Roboto;-inkscape-font-specification:'Roboto Bold';fill:#f9f9f9" id="path684"/><path d="m 27.36718,5.1142741 q -0.165864,0.2015171 -0.458839,0.2015171 -0.269723,0 -0.412335,-0.1550131 Q 26.354944,5.0057649 26.351844,4.7065894 V 3.607546 h 0.447988 v 1.0835421 q 0,0.2619723 0.23872,0.2619723 0.227869,0 0.313127,-0.1581134 V 3.607546 h 0.449538 v 1.6772426 h -0.421636 z" style="font-family:Roboto;-inkscape-font-specification:'Roboto Bold';fill:#f9f9f9" id="path686"/><path d="M 28.675491,3.1952109 V 3.607546 h 0.286775 v 0.3286279 h -0.286775 v 0.8370712 q 0,0.093008 0.03565,0.1333113 0.03565,0.040303 0.136412,0.040303 0.07441,0 0.131761,-0.010851 v 0.3394789 q -0.131761,0.040303 -0.271273,0.040303 -0.47124,0 -0.480541,-0.4758904 V 3.9361739 H 27.982582 V 3.607546 h 0.244921 V 3.1952109 Z" style="font-family:Roboto;-inkscape-font-specification:'Roboto Bold';fill:#f9f9f9" id="path688"/><path d="m 29.095578,4.430666 q 0,-0.2495713 0.09611,-0.4448879 0.09611,-0.1953166 0.275923,-0.3022757 0.181366,-0.1069591 0.420086,-0.1069591 0.339479,0 0.553397,0.2077177 0.215468,0.2077177 0.240271,0.564248 l 0.0031,0.1147097 q 0,0.3859829 -0.215469,0.6200528 -0.215468,0.2325197 -0.578199,0.2325197 -0.362731,0 -0.579749,-0.2325197 Q 29.09558,4.8507517 29.09558,4.4508177 Z m 0.447988,0.032553 q 0,0.2387203 0.08991,0.3658312 0.08991,0.1255606 0.257322,0.1255606 0.162764,0 0.254222,-0.1240105 0.09146,-0.1255607 0.09146,-0.399934 0,-0.2340699 -0.09146,-0.3627309 -0.09146,-0.1286609 -0.257322,-0.1286609 -0.164314,0 -0.254222,0.1286609 -0.08991,0.1271108 -0.08991,0.3952836 z" style="font-family:Roboto;-inkscape-font-specification:'Roboto Bold';fill:#f9f9f9" id="path690"/><path d="m 31.902866,4.0276317 q -0.09146,-0.012401 -0.161213,-0.012401 -0.254222,0 -0.333279,0.1720647 V 5.2847886 H 30.960386 V 3.607546 h 0.423186 l 0.0124,0.199967 q 0.134862,-0.2309697 0.373582,-0.2309697 0.07441,0 0.139512,0.020152 z" style="font-family:Roboto;-inkscape-font-specification:'Roboto Bold';fill:#f9f9f9" id="path692"/><path d="M 32.591125,5.2847886 H 32.141587 V 3.607546 h 0.449538 z M 32.115234,3.1735091 q 0,-0.1007586 0.06666,-0.1658641 0.06821,-0.065106 0.184466,-0.065106 0.114709,0 0.182915,0.065106 0.06821,0.065106 0.06821,0.1658641 0,0.1023087 -0.06976,0.1674142 -0.06821,0.065106 -0.181365,0.065106 -0.11316,0 -0.182916,-0.065106 -0.06821,-0.065106 -0.06821,-0.1674142 z" style="font-family:Roboto;-inkscape-font-specification:'Roboto Bold';fill:#f9f9f9" id="path694"/><path d="m 33.931988,5.2847886 q -0.031,-0.060455 -0.04495,-0.1503628 -0.162764,0.1813654 -0.423186,0.1813654 -0.246471,0 -0.409235,-0.1426121 Q 32.8934,5.030567 32.8934,4.8135485 q 0,-0.2666226 0.196866,-0.4092348 0.198417,-0.1426121 0.571999,-0.1441622 h 0.206167 v -0.096108 q 0,-0.1162599 -0.06045,-0.1860158 -0.05891,-0.069756 -0.187566,-0.069756 -0.113159,0 -0.178265,0.054255 -0.06356,0.054255 -0.06356,0.1488126 h -0.447988 q 0,-0.1457124 0.08991,-0.2697229 0.08991,-0.1240106 0.254222,-0.1937665 0.164314,-0.071306 0.368931,-0.071306 0.310027,0 0.491392,0.1565634 0.182916,0.1550131 0.182916,0.4371371 v 0.7270119 q 0.0016,0.2387203 0.06665,0.3611807 V 5.284789 Z M 33.561506,4.9732121 q 0.09921,0 0.182916,-0.043404 0.08371,-0.044954 0.12401,-0.1193601 V 4.5221237 h -0.167414 q -0.336378,0 -0.35808,0.2325198 l -0.0015,0.026352 q 0,0.083707 0.0589,0.1379617 0.05891,0.054255 0.161213,0.054255 z" style="font-family:Roboto;-inkscape-font-specification:'Roboto Bold';fill:#f9f9f9" id="path696"/><path d="M 35.134891,5.2847886 H 34.685353 V 2.9037861 h 0.449538 z" style="font-family:Roboto;-inkscape-font-specification:'Roboto Bold';fill:#f9f9f9" id="path698"/></g><g aria-label="Persian | " id="text589" style="font-size:3.17467px;fill:#61dafb;stroke-width:0.595249"><path d="M 16.124074,8.0266551 V 8.8218727 H 15.659035 V 6.5648808 h 0.880475 q 0.254221,0 0.446438,0.093008 0.193766,0.093008 0.297625,0.2650725 0.103859,0.1705145 0.103859,0.3890831 0,0.3317282 -0.22787,0.5239446 -0.226319,0.1906662 -0.627803,0.1906662 z m 0,-0.376682 h 0.415436 q 0.184465,0 0.280573,-0.086807 0.09766,-0.086807 0.09766,-0.2480211 0,-0.1658641 -0.09766,-0.2681728 -0.09766,-0.1023087 -0.269722,-0.105409 h -0.426287 z" style="font-weight:bold;font-family:Roboto;-inkscape-font-specification:'Roboto Bold'" id="path701"/><path d="m 18.42912,8.8528753 q -0.368931,0 -0.601451,-0.2263192 Q 17.5967,8.4002369 17.5967,8.0235548 v -0.043404 q 0,-0.2526715 0.09766,-0.4510883 0.09766,-0.199967 0.275923,-0.3069261 0.179816,-0.1085093 0.409235,-0.1085093 0.344129,0 0.540996,0.2170185 0.198417,0.2170184 0.198417,0.6154023 V 8.1289635 H 18.05089 q 0.0217,0.164314 0.130211,0.2635224 0.11006,0.099208 0.277474,0.099208 0.258872,0 0.404584,-0.1875659 l 0.220119,0.2464709 q -0.100759,0.1426122 -0.272823,0.223219 -0.172065,0.079057 -0.381333,0.079057 z m -0.05115,-1.376517 q -0.133311,0 -0.217019,0.089908 -0.08216,0.089908 -0.105408,0.2573219 h 0.623153 v -0.035653 q -0.0031,-0.1488127 -0.08061,-0.2294195 -0.07751,-0.082157 -0.220119,-0.082157 z" style="font-weight:bold;font-family:Roboto;-inkscape-font-specification:'Roboto Bold'" id="path703"/><path d="m 20.315631,7.5647158 q -0.09146,-0.012401 -0.161214,-0.012401 -0.254222,0 -0.333278,0.1720647 V 8.8218727 H 19.373151 V 7.1446301 h 0.423186 l 0.0124,0.199967 q 0.134861,-0.2309697 0.373581,-0.2309697 0.07441,0 0.139512,0.020152 z" style="font-weight:bold;font-family:Roboto;-inkscape-font-specification:'Roboto Bold'" id="path705"/><path d="m 21.439476,8.3583833 q 0,-0.082157 -0.08216,-0.1286609 -0.08061,-0.048054 -0.260422,-0.085257 -0.598351,-0.1255607 -0.598351,-0.5084432 0,-0.223219 0.184466,-0.3720317 0.186016,-0.1503628 0.485191,-0.1503628 0.319328,0 0.509994,0.1503628 0.192216,0.1503628 0.192216,0.3906332 h -0.447988 q 0,-0.096108 -0.062,-0.1581134 -0.06201,-0.063555 -0.193767,-0.063555 -0.113159,0 -0.175165,0.051154 -0.062,0.051154 -0.062,0.1302111 0,0.074406 0.06976,0.1209103 0.07131,0.044954 0.23872,0.079057 0.167415,0.032553 0.282124,0.074406 0.35498,0.130211 0.35498,0.4510883 0,0.2294195 -0.196866,0.3720317 -0.196867,0.1410619 -0.508444,0.1410619 -0.210817,0 -0.375131,-0.074406 -0.162764,-0.075956 -0.255772,-0.2061675 -0.09301,-0.1317612 -0.09301,-0.2836741 h 0.424736 q 0.0062,0.1193601 0.08836,0.1829155 0.08216,0.063555 0.220118,0.063555 0.128661,0 0.193767,-0.048054 0.06666,-0.049604 0.06666,-0.1286609 z" style="font-weight:bold;font-family:Roboto;-inkscape-font-specification:'Roboto Bold'" id="path707"/><path d="M 22.636178,8.8218727 H 22.18664 V 7.1446301 h 0.449538 z m -0.47589,-2.1112795 q 0,-0.1007586 0.06666,-0.1658641 0.0682,-0.065106 0.184465,-0.065106 0.11471,0 0.182916,0.065106 0.06821,0.065106 0.06821,0.1658641 0,0.1023087 -0.06976,0.1674142 -0.06821,0.065105 -0.181366,0.065105 -0.113159,0 -0.182915,-0.065105 -0.06821,-0.065106 -0.06821,-0.1674142 z" style="font-weight:bold;font-family:Roboto;-inkscape-font-specification:'Roboto Bold'" id="path709"/><path d="m 23.977042,8.8218727 q -0.031,-0.060455 -0.04495,-0.1503628 -0.162763,0.1813654 -0.423186,0.1813654 -0.24647,0 -0.409234,-0.1426121 -0.161214,-0.1426121 -0.161214,-0.3596306 0,-0.2666226 0.196867,-0.4092348 0.198417,-0.1426121 0.571998,-0.1441622 h 0.206168 v -0.096108 q 0,-0.1162599 -0.06046,-0.1860158 -0.0589,-0.069756 -0.187566,-0.069756 -0.11316,0 -0.178265,0.054255 -0.06356,0.054255 -0.06356,0.1488126 h -0.447988 q 0,-0.1457124 0.08991,-0.2697229 0.08991,-0.1240106 0.254221,-0.1937665 0.164314,-0.071306 0.368932,-0.071306 0.310026,0 0.491392,0.1565634 0.182915,0.1550131 0.182915,0.4371371 v 0.7270119 q 0.0015,0.2387203 0.06666,0.3611807 v 0.026352 z M 23.606561,8.5102962 q 0.09921,0 0.182915,-0.043404 0.08371,-0.044954 0.124011,-0.1193601 V 8.0592079 h -0.167414 q -0.336379,0 -0.358081,0.2325197 l -0.0016,0.026352 q 0,0.083707 0.05891,0.1379617 0.0589,0.054255 0.161214,0.054255 z" style="font-weight:bold;font-family:Roboto;-inkscape-font-specification:'Roboto Bold'" id="path711"/><path d="m 25.119489,7.1446301 0.01395,0.1937665 q 0.179816,-0.2247692 0.482091,-0.2247692 0.266623,0 0.396834,0.1565634 0.130211,0.1565633 0.133311,0.4681398 V 8.8218727 H 25.697688 V 7.7491815 q 0,-0.1426121 -0.062,-0.2061675 -0.062,-0.065106 -0.206167,-0.065106 -0.189117,0 -0.283675,0.1612137 v 1.182751 H 24.697853 V 7.1446301 Z" style="font-weight:bold;font-family:Roboto;-inkscape-font-specification:'Roboto Bold'" id="path713"/><path d="M 27.643104,9.2404083 H 27.371831 V 6.5648808 h 0.271273 z" style="fill:#ececec" id="path715"/></g><g aria-label="پارسی" id="text2898" style="font-weight:bold;font-size:2.82222px;font-family:'IRANSansWeb(FaNum)';-inkscape-font-specification:'IRANSansWeb(FaNum) Bold';fill:#61dafb;stroke-width:0.264583"><path d="m 33.982974,8.194388 q 0,-0.040493 0.01595,-0.076077 0.01472,-0.035585 0.04049,-0.061353 0.02577,-0.026995 0.06135,-0.04172 0.03558,-0.014725 0.07608,-0.014725 h 0.136203 0.0589 q 0.05522,0 0.121478,-0.00491 0.06626,-0.00491 0.127613,-0.015952 0.06135,-0.011043 0.110435,-0.029449 0.05031,-0.019633 0.07362,-0.049082 0.0135,-0.02086 0.0135,-0.056444 0,-0.052763 -0.02577,-0.1251593 -0.02454,-0.072396 -0.0589,-0.1472463 -0.03436,-0.07485 -0.07117,-0.1435651 -0.03558,-0.068715 -0.05767,-0.1141159 L 34.9548,7.1428042 q 0.03804,0.066261 0.07362,0.1570627 0.03558,0.089575 0.06381,0.1852849 0.02822,0.094483 0.0454,0.1865119 0.01718,0.090802 0.01718,0.1582898 0,0.1239322 -0.04417,0.2270046 -0.05154,0.1153429 -0.141111,0.1914202 -0.08957,0.07485 -0.214734,0.1104347 -0.03681,0.00982 -0.09203,0.015952 -0.05522,0.00614 -0.111662,0.00859 -0.05644,0.00368 -0.106753,0.00368 -0.05031,0.00123 -0.07853,0.00123 h -0.177922 -0.01104 q -0.04049,0 -0.07608,-0.014725 -0.03558,-0.014725 -0.06135,-0.04172 -0.02577,-0.025768 -0.04049,-0.061353 -0.01595,-0.035585 -0.01595,-0.076077 z m 0.92397,0.8196709 -0.230685,-0.2306859 -0.23314,0.23314 -0.235594,-0.2368211 0.238048,-0.2368211 0.230686,0.2306858 0.23314,-0.2331399 0.235594,0.2368211 z M 34.677486,8.9134406 34.895901,9.1318559 34.676259,9.3514982 34.457843,9.1330829 Z" id="path718"/><path d="m 34.1793,8.3882622 q -0.150927,0 -0.258908,-0.038039 Q 33.812412,8.3134112 33.73388,8.2361073 33.6848,8.1870253 33.6578,8.133035 33.63203,8.079045 33.61976,8.0275085 q -0.01104,-0.052763 -0.0135,-0.099391 -0.0012,-0.046628 -0.0012,-0.079758 v -0.018406 q 0.0012,-0.045401 0.0025,-0.1300676 0.0025,-0.085894 0.0025,-0.2012365 0,-0.1153429 -0.0012,-0.2539998 Q 33.60766,7.1059927 33.60146,6.9685628 33.59656,6.8299059 33.58551,6.7022925 33.57571,6.5746791 33.55729,6.480196 l 0.366889,-0.1116617 q 0.01595,0.080985 0.02577,0.1914201 0.0098,0.1092077 0.01595,0.2294588 0.0074,0.1202511 0.0098,0.2417293 0.0037,0.1214781 0.0049,0.2257776 0.0012,0.092029 -0.0074,0.1803767 -0.0074,0.087121 -0.01227,0.1717873 -0.0049,0.08344 0,0.1631979 0.0061,0.078531 0.03436,0.1533815 0.01104,0.028222 0.02699,0.042947 0.01718,0.014725 0.03927,0.022087 0.02209,0.00614 0.04785,0.00736 0.027,0.00123 0.0589,0.00123 h 0.01104 q 0.03927,0 0.07485,0.015952 0.03558,0.015952 0.06135,0.042947 0.02699,0.025768 0.04295,0.061353 0.01595,0.035585 0.01595,0.07485 0,0.040493 -0.01595,0.076077 -0.01595,0.035585 -0.04295,0.061353 -0.02577,0.026995 -0.06135,0.04172 -0.03558,0.014725 -0.07485,0.014725 z" id="path720"/><path d="m 33.224654,7.488833 q 0.04663,0.1325216 0.08099,0.258908 0.01472,0.055217 0.02945,0.1153429 0.01472,0.058898 0.02577,0.119024 0.01227,0.058899 0.01963,0.11657 0.0074,0.056444 0.0074,0.1055265 0,0.1153429 -0.0319,0.2245505 -0.03068,0.1104347 -0.08835,0.2135071 -0.05644,0.1030724 -0.134976,0.1975554 -0.07853,0.09571 -0.174241,0.1791497 -0.09571,0.08344 -0.204918,0.1546085 -0.109208,0.072396 -0.225777,0.1300676 L 32.304365,8.993199 q 0.08835,-0.044174 0.17915,-0.1006183 0.08957,-0.055217 0.171787,-0.1190241 0.08344,-0.063807 0.154609,-0.1337487 0.0724,-0.069942 0.125159,-0.142338 0.05399,-0.072396 0.08467,-0.1472463 0.03068,-0.073623 0.03068,-0.1447922 0,-0.051536 -0.01472,-0.1116617 Q 33.0222,8.0336437 32.99766,7.9649292 32.97435,7.8949872 32.94121,7.8176829 32.90808,7.7391519 32.87004,7.6508038 Z" id="path722"/><path d="m 30.339857,8.195615 q 0,-0.038039 0.01472,-0.072396 0.01473,-0.034357 0.03927,-0.060125 0.02454,-0.026995 0.0589,-0.042947 0.03313,-0.017179 0.07117,-0.019633 0.09203,0 0.154608,-0.049082 0.06381,-0.050309 0.109208,-0.1312945 0.0454,-0.080986 0.0773,-0.1840579 0.0319,-0.1042994 0.06013,-0.21228 l 0.326395,0.058898 q -0.0098,0.042947 -0.02454,0.1006183 -0.0135,0.056444 -0.02577,0.117797 -0.01104,0.061353 -0.0184,0.1202511 -0.0074,0.057671 -0.0037,0.1018453 0.0049,0.044174 0.02331,0.069942 0.01841,0.024541 0.05645,0.018406 0.04908,-0.00368 0.08835,-0.034358 0.04049,-0.030676 0.0724,-0.078531 0.0319,-0.047855 0.05644,-0.1079806 0.02454,-0.060126 0.04172,-0.1239323 0.01841,-0.063807 0.02945,-0.1263864 0.01227,-0.06258 0.01963,-0.1141158 l 0.311671,0.052763 q -0.0012,0.036812 -0.0086,0.090802 -0.0074,0.05399 -0.0135,0.1141159 -0.0061,0.058899 -0.0061,0.119024 0,0.058898 0.0135,0.1067536 0.0135,0.046628 0.04417,0.076077 0.0319,0.029449 0.08835,0.029449 0.03436,0 0.06994,-0.011043 0.03558,-0.01227 0.06381,-0.03313 0.02822,-0.022087 0.0454,-0.051536 0.01841,-0.029449 0.01841,-0.066261 0,-0.063807 -0.02086,-0.139884 -0.02086,-0.077304 -0.05031,-0.1521545 -0.02945,-0.076077 -0.06258,-0.1435651 -0.0319,-0.067488 -0.05399,-0.1141158 L 32.310518,7.132988 q 0.0074,0.015952 0.02577,0.056444 0.0184,0.039266 0.04172,0.09571 0.02331,0.056444 0.04786,0.1276134 0.02577,0.069942 0.04663,0.1460192 0.02086,0.076077 0.03436,0.1558357 0.0135,0.079758 0.0135,0.1546085 0,0.1227053 -0.03436,0.2208694 -0.03313,0.098164 -0.101845,0.1668791 -0.06749,0.068715 -0.170561,0.1067536 -0.101845,0.038039 -0.239275,0.039266 -0.06626,0 -0.120251,-0.013498 -0.05399,-0.01227 -0.09694,-0.035584 -0.04295,-0.022087 -0.0773,-0.052763 -0.03313,-0.030676 -0.0589,-0.065034 -0.02945,0.038039 -0.06381,0.068715 -0.03313,0.029449 -0.0773,0.050309 -0.04295,0.022087 -0.09694,0.034357 -0.05399,0.012271 -0.122705,0.013498 -0.06013,0.00123 -0.109208,-0.011043 -0.04785,-0.011044 -0.08835,-0.03313 -0.04049,-0.022087 -0.07362,-0.052763 -0.0319,-0.031903 -0.06012,-0.069942 -0.02577,0.031903 -0.0589,0.060126 -0.03313,0.026995 -0.07853,0.047855 -0.0454,0.02086 -0.105527,0.033131 -0.06012,0.01227 -0.139884,0.01227 h -0.02209 q -0.03804,-0.00245 -0.07117,-0.018406 -0.03436,-0.015952 -0.0589,-0.04172 -0.02454,-0.025768 -0.03927,-0.060125 -0.01472,-0.034358 -0.01472,-0.073623 z" id="path724"/><path d="m 29.420793,9.1883003 q -0.114116,0 -0.235594,-0.013498 -0.120251,-0.012271 -0.23314,-0.047855 Q 28.840398,9.0913623 28.74346,9.026329 28.64652,8.962522 28.580262,8.8594499 q -0.06258,-0.099391 -0.09694,-0.2184153 -0.03436,-0.1190241 -0.03436,-0.2662704 0,-0.1079805 0.0086,-0.2049177 0.0098,-0.098164 0.02945,-0.1938742 0.01963,-0.09571 0.05031,-0.1938743 0.0319,-0.098164 0.07608,-0.2085988 l 0.315352,0.1312945 q -0.03558,0.088348 -0.06135,0.1595168 -0.02454,0.071169 -0.04172,0.1300676 -0.01718,0.057671 -0.02699,0.1067535 -0.0098,0.049082 -0.01472,0.094483 -0.0049,0.044174 -0.0061,0.088348 -0.0012,0.042947 -0.0012,0.090802 0,0.092029 0.02945,0.1595168 0.02945,0.067488 0.07976,0.1141159 0.05031,0.046628 0.115343,0.076077 0.06626,0.030676 0.13743,0.046628 0.07117,0.015952 0.143565,0.022087 0.07362,0.00614 0.138657,0.00614 0.0319,0 0.09448,-0.00491 0.06258,-0.00368 0.136203,-0.014725 0.07485,-0.00982 0.152155,-0.026995 0.07853,-0.017179 0.142338,-0.042947 0.06381,-0.024541 0.104299,-0.058898 0.04049,-0.03313 0.04049,-0.078531 0,-0.00491 -0.02086,-0.017179 -0.01963,-0.012271 -0.05522,-0.029449 -0.03436,-0.015952 -0.08099,-0.036812 -0.0454,-0.019633 -0.09816,-0.040493 h 0.0012 q -0.0589,-0.018406 -0.123932,-0.031903 -0.06381,-0.01227 -0.126387,-0.022087 -0.0098,-0.00123 -0.02577,-0.00368 -0.01472,-0.00245 -0.03068,-0.00614 -0.01595,-0.00245 -0.0319,-0.00614 -0.01472,-0.00245 -0.02454,-0.00491 l 0.05031,-0.3730239 h 0.984096 q 0.03927,0 0.07485,0.014725 0.03558,0.014725 0.06135,0.04172 0.02699,0.025768 0.04295,0.061353 0.01595,0.035585 0.01595,0.076077 0,0.040493 -0.01595,0.076077 -0.01595,0.035585 -0.04295,0.061353 -0.02577,0.026995 -0.06135,0.04172 -0.03559,0.014725 -0.07485,0.014725 h -0.136203 q 0.02577,0.049082 0.03681,0.098164 0.01227,0.050309 0.0135,0.085894 -0.0061,0.1153429 -0.0589,0.2049177 -0.05154,0.090802 -0.133748,0.1595168 -0.08221,0.068715 -0.186512,0.1165699 -0.1043,0.047855 -0.213507,0.077304 -0.109208,0.030676 -0.215962,0.044174 -0.105526,0.013498 -0.192647,0.013498 z" id="path726"/></g></g></g></svg>
